<svg width="200" height="60" viewBox="0 0 200 60" fill="none" xmlns="http://www.w3.org/2000/svg">
   <path d="M22.6372 0.888538C17.9806 2.27098 11.4322 6.27277 8.44903 9.76525C7.06659 11.366 4.88379 14.7857 3.64687 17.4051C0.5 22.4073 0.5 29.7742 0.5 29.7742C0.5 29.7742 0.5 36.5955 3.71963 42.3617C15.2885 65.8632 47.8849 65.0628 58.5079 41.052C60.6179 36.3954 61.1273 27.737 59.6721 22.28C57.4165 13.7671 51.6685 6.7821 43.5193 2.7803C39.2447 1.125 36.1706 0.251885 30.7863 0.0336046C26.1115 0.0336046 24.7473 0.306458 22.6372 0.888538ZM30.0587 3.58066C30.0587 4.38102 30.4225 5.03586 30.7863 5.03586C31.2229 5.03586 31.5139 4.38102 31.5139 3.5079C31.5139 2.12546 31.805 2.0527 34.6426 2.48926C36.3161 2.7803 38.9355 3.5079 40.4634 4.08998C42.5735 4.9631 43.1555 5.61794 43.1555 7.07314C43.1555 8.81938 43.2283 8.89214 44.6107 7.58246C45.9204 6.34554 46.1387 6.49105 50.1405 10.4201C54.0695 14.4219 54.2151 14.6402 52.9781 15.9499C51.6685 17.3323 51.7412 17.4051 53.4875 17.4051C54.9427 17.4051 55.5975 17.9871 56.4706 20.0972C57.0527 21.6251 57.7803 24.2445 58.0713 25.918C58.5079 28.7556 58.4351 29.0466 57.0527 29.0466C55.0882 29.0466 55.0882 30.2108 57.0527 30.7201C58.3624 31.0839 58.4351 31.4477 57.9986 33.9216C57.7075 35.4495 57.0527 37.9234 56.4706 39.4513C55.5975 41.5614 55.0154 42.1434 53.4875 42.1434C51.7412 42.1434 51.6685 42.2162 52.9781 43.5986C54.2151 44.9083 54.0695 45.1266 50.1405 49.1284C46.1387 53.0574 45.9204 53.203 44.6107 51.966C43.2283 50.6564 43.1555 50.7291 43.1555 52.4754C43.1555 53.9306 42.5735 54.5854 40.4634 55.4585C38.9355 56.0406 36.3161 56.7682 34.6426 57.0592C31.805 57.4958 31.5139 57.423 31.5139 56.0406C31.5139 55.1675 31.2229 54.5126 30.7863 54.5126C30.4225 54.5126 30.0587 55.1675 30.0587 56.0406C30.0587 57.423 29.7677 57.4958 27.0028 57.0592C21.9096 56.1861 18.4171 54.5126 18.4171 52.9847C18.4171 52.2571 18.1261 51.6022 17.6895 51.6022C17.3257 51.6022 16.9619 51.8933 16.9619 52.3298C16.9619 53.9306 15.2157 52.9119 11.3594 49.0556C7.43039 45.1266 7.35763 44.9083 8.59455 43.5986C9.90423 42.2162 9.83147 42.1434 8.08523 42.1434C6.63003 42.1434 5.97519 41.5614 5.10207 39.4513C4.51999 37.9234 3.79239 35.304 3.50135 33.5578C3.06479 30.7929 3.13755 30.5018 4.51999 30.5018C5.39311 30.5018 6.04795 30.138 6.04795 29.7742C6.04795 29.3377 5.39311 29.0466 4.51999 29.0466C3.13755 29.0466 3.06479 28.7556 3.50135 25.918C3.79239 24.2445 4.51999 21.6251 5.10207 20.0972C5.97519 17.9871 6.63003 17.4051 8.08523 17.4051C9.83147 17.4051 9.90423 17.3323 8.59455 15.9499C7.35763 14.6402 7.50315 14.4219 11.4322 10.4201C15.434 6.49105 15.6523 6.34554 16.9619 7.58246C18.3444 8.89214 18.4171 8.81938 18.4171 7.00038C18.4171 5.47242 18.9992 4.9631 21.5458 4.01722C27.7304 1.76166 30.0587 1.6889 30.0587 3.58066Z" fill="black"/>
   <path d="M44.254 29.7234L36.3745 29.7234V33.6908H42.4087C49.3747 33.6816 49.5039 33.6631 50.814 32.3529C51.4507 31.7163 51.5983 31.4949 51.8843 30.6922C52.0596 30.1847 52.198 29.7695 52.1796 29.7511C52.1611 29.7326 48.6089 29.7234 44.254 29.7234Z" fill="black"/>
   <path d="M34.7507 29.7234L34.151 29.7326L34.1694 31.4857L35.4427 31.4672L35.4519 30.646C35.4611 30.1939 35.4334 29.7972 35.4058 29.7695C35.3781 29.7418 35.0828 29.7234 34.7507 29.7234Z" fill="black"/>
   <path d="M31.6967 29.7326C30.1282 29.7511 29.796 29.8987 29.8237 30.6091C29.8514 31.3196 30.1374 31.458 31.7521 31.4672L33.2283 31.4857L33.2375 30.6461C33.2467 30.194 33.2191 29.7972 33.1914 29.7695C33.1545 29.7326 32.4902 29.7142 31.6967 29.7326Z" fill="black"/>
   <path d="M29.7894 19.3989C29.7521 25.304 29.7894 30.312 29.8642 30.5363C30.0324 31.0969 30.2099 31.237 30.7425 31.2277C31.6488 31.237 31.7048 31.0315 31.7142 27.3221C31.7235 25.4441 31.6768 23.8464 31.6207 23.7903C31.4152 23.5848 31.4526 22.2393 31.6675 21.8749C31.7796 21.6881 32.0692 21.4171 32.3122 21.2863L32.7513 21.034L32.6859 19.2121C32.5644 15.6335 32.1627 12.9707 31.4993 11.0553C31.0975 9.92472 30.3314 8.6727 30.0324 8.6727C29.9202 8.6727 29.8362 12.6063 29.7894 19.3989Z" fill="black"/>
   <path d="M16.6737 45.7768C18.9201 43.5303 19.1917 43.16 19.1917 42.3948L19.167 41.5307L18.2536 42.5923C17.7352 43.16 17.2168 43.6291 17.0686 43.6291C16.5255 43.6291 15.0197 45.5546 14.5259 46.9124C14.2544 47.6777 14.0322 48.3195 14.0816 48.3195C14.1063 48.3195 15.2665 47.1839 16.6737 45.7768Z" fill="black"/>
   <path d="M25.462 36.9884C31.4115 31.039 31.7324 30.5947 30.7449 29.9528C30.3746 29.7306 29.56 30.4465 24.993 34.9888C20.1298 39.8521 19.6854 40.3705 19.5373 41.3086C19.4632 41.901 19.4385 42.4935 19.4632 42.6169C19.5126 42.7651 22.2034 40.247 25.462 36.9884Z" fill="black"/>
   <path d="M72.864 41V17.768H68.48V15.08H80.736V17.768H76.48V41H72.864ZM83.1708 41V22.504H86.5948V41H83.1708ZM83.1708 19.752V16.168H86.5948V19.752H83.1708ZM90.2593 41V22.504H93.4273V24.264C94.0459 23.56 94.7286 23.0373 95.4753 22.696C96.2219 22.3547 96.9899 22.184 97.7793 22.184C98.4619 22.184 99.0699 22.3547 99.6033 22.696C100.158 23.0373 100.553 23.6453 100.787 24.52C101.449 23.7093 102.163 23.1227 102.931 22.76C103.721 22.376 104.542 22.184 105.395 22.184C105.993 22.184 106.537 22.3333 107.027 22.632C107.518 22.9093 107.913 23.368 108.211 24.008C108.51 24.6267 108.659 25.448 108.659 26.472V41H105.523V26.696C105.523 25.8 105.374 25.2027 105.075 24.904C104.798 24.584 104.414 24.424 103.923 24.424C103.454 24.424 102.963 24.5627 102.451 24.84C101.939 25.096 101.47 25.4587 101.043 25.928C101.043 26.0133 101.043 26.0987 101.043 26.184C101.043 26.2693 101.043 26.3653 101.043 26.472V41H97.9073V26.696C97.9073 25.8 97.7579 25.2027 97.4593 24.904C97.1819 24.584 96.7979 24.424 96.3073 24.424C95.8379 24.424 95.3473 24.5627 94.8353 24.84C94.3446 25.096 93.8753 25.4587 93.4273 25.928V41H90.2593ZM117.129 41.256C115.679 41.256 114.559 40.9787 113.769 40.424C112.98 39.848 112.425 39.016 112.105 37.928C111.807 36.8187 111.657 35.464 111.657 33.864V29.64C111.657 27.9973 111.817 26.632 112.137 25.544C112.457 24.456 113.012 23.6347 113.801 23.08C114.612 22.5253 115.721 22.248 117.129 22.248C118.687 22.248 119.828 22.568 120.553 23.208C121.3 23.848 121.791 24.776 122.025 25.992C122.26 27.1867 122.377 28.6267 122.377 30.312V31.816H115.081V35.528C115.081 36.2747 115.145 36.8827 115.273 37.352C115.423 37.8213 115.647 38.1733 115.945 38.408C116.265 38.6213 116.671 38.728 117.161 38.728C117.673 38.728 118.057 38.6107 118.313 38.376C118.591 38.12 118.772 37.768 118.857 37.32C118.964 36.8507 119.017 36.3067 119.017 35.688V34.568H122.345V35.272C122.345 37.128 121.951 38.5893 121.161 39.656C120.372 40.7227 119.028 41.256 117.129 41.256ZM115.081 29.96H119.017V28.296C119.017 27.528 118.975 26.888 118.889 26.376C118.804 25.8427 118.623 25.448 118.345 25.192C118.089 24.9147 117.673 24.776 117.097 24.776C116.543 24.776 116.116 24.904 115.817 25.16C115.54 25.416 115.348 25.8533 115.241 26.472C115.135 27.0693 115.081 27.9013 115.081 28.968V29.96ZM131.878 41.288C130.385 41.288 129.137 40.968 128.134 40.328C127.153 39.688 126.406 38.8027 125.894 37.672C125.382 36.5413 125.083 35.2293 124.998 33.736L128.198 32.872C128.262 33.7893 128.401 34.6747 128.614 35.528C128.849 36.3813 129.222 37.0853 129.734 37.64C130.246 38.1733 130.961 38.44 131.878 38.44C132.817 38.44 133.521 38.184 133.99 37.672C134.481 37.1387 134.726 36.3813 134.726 35.4C134.726 34.2267 134.459 33.288 133.926 32.584C133.393 31.8587 132.721 31.1333 131.91 30.408L127.558 26.568C126.705 25.8213 126.075 25.0107 125.67 24.136C125.265 23.24 125.062 22.1413 125.062 20.84C125.062 18.9413 125.606 17.4693 126.694 16.424C127.782 15.3787 129.265 14.856 131.142 14.856C132.166 14.856 133.062 14.9947 133.83 15.272C134.619 15.528 135.27 15.9333 135.782 16.488C136.315 17.0427 136.731 17.7467 137.03 18.6C137.35 19.432 137.563 20.4133 137.67 21.544L134.598 22.376C134.534 21.5227 134.406 20.744 134.214 20.04C134.022 19.3147 133.681 18.7387 133.19 18.312C132.721 17.864 132.038 17.64 131.142 17.64C130.246 17.64 129.542 17.8853 129.03 18.376C128.539 18.8453 128.294 19.5493 128.294 20.488C128.294 21.2773 128.422 21.928 128.678 22.44C128.955 22.952 129.393 23.4747 129.99 24.008L134.374 27.848C135.355 28.7013 136.219 29.7253 136.966 30.92C137.713 32.0933 138.086 33.4907 138.086 35.112C138.086 36.392 137.819 37.5013 137.286 38.44C136.753 39.3573 136.017 40.0613 135.078 40.552C134.161 41.0427 133.094 41.288 131.878 41.288ZM140.699 41V15.08H144.123V24.424C144.742 23.8267 145.435 23.3147 146.203 22.888C146.971 22.4613 147.824 22.248 148.763 22.248C149.488 22.248 150.043 22.44 150.427 22.824C150.832 23.208 151.11 23.688 151.259 24.264C151.43 24.84 151.515 25.4267 151.515 26.024V41H148.091V27.016C148.091 26.3547 147.995 25.8427 147.803 25.48C147.611 25.1173 147.216 24.936 146.619 24.936C146.214 24.936 145.787 25.0533 145.339 25.288C144.912 25.5227 144.507 25.8107 144.123 26.152V41H140.699ZM158.181 41.256C157.456 41.256 156.816 41.0533 156.261 40.648C155.706 40.2213 155.269 39.688 154.949 39.048C154.629 38.3867 154.469 37.6933 154.469 36.968C154.469 35.816 154.661 34.8453 155.045 34.056C155.429 33.2667 155.952 32.6053 156.613 32.072C157.296 31.5173 158.074 31.0373 158.949 30.632C159.845 30.2267 160.784 29.832 161.765 29.448V28.136C161.765 27.3893 161.722 26.7707 161.637 26.28C161.552 25.7893 161.37 25.4267 161.093 25.192C160.837 24.936 160.442 24.808 159.909 24.808C159.44 24.808 159.056 24.9147 158.757 25.128C158.48 25.3413 158.277 25.6507 158.149 26.056C158.021 26.44 157.957 26.8987 157.957 27.432V28.36L154.565 28.232C154.608 26.184 155.077 24.68 155.973 23.72C156.869 22.7387 158.256 22.248 160.133 22.248C161.968 22.248 163.269 22.7493 164.037 23.752C164.805 24.7547 165.189 26.2053 165.189 28.104V36.552C165.189 37.128 165.2 37.6827 165.221 38.216C165.264 38.7493 165.306 39.2507 165.349 39.72C165.413 40.168 165.466 40.5947 165.509 41H162.373C162.309 40.6587 162.224 40.232 162.117 39.72C162.032 39.1867 161.968 38.7067 161.925 38.28C161.712 39.0053 161.296 39.688 160.677 40.328C160.08 40.9467 159.248 41.256 158.181 41.256ZM159.525 38.312C159.866 38.312 160.186 38.216 160.485 38.024C160.784 37.832 161.05 37.6187 161.285 37.384C161.52 37.128 161.68 36.9253 161.765 36.776V31.528C161.232 31.8267 160.73 32.1253 160.261 32.424C159.792 32.7227 159.376 33.0427 159.013 33.384C158.672 33.704 158.394 34.0773 158.181 34.504C157.989 34.9093 157.893 35.3787 157.893 35.912C157.893 36.6587 158.032 37.2453 158.309 37.672C158.586 38.0987 158.992 38.312 159.525 38.312ZM168.574 41V22.504H171.998V25.128C172.681 23.9973 173.363 23.24 174.046 22.856C174.729 22.472 175.411 22.28 176.094 22.28C176.179 22.28 176.254 22.28 176.318 22.28C176.403 22.28 176.51 22.2907 176.638 22.312V26.088C176.382 25.9813 176.083 25.896 175.742 25.832C175.422 25.7467 175.091 25.704 174.75 25.704C174.217 25.704 173.726 25.832 173.278 26.088C172.851 26.3227 172.425 26.792 171.998 27.496V41H168.574ZM178.759 47.08V22.504H182.183V23.976C182.589 23.5067 183.079 23.1013 183.655 22.76C184.231 22.4187 184.914 22.248 185.703 22.248C186.663 22.248 187.421 22.504 187.975 23.016C188.551 23.5067 188.978 24.136 189.255 24.904C189.533 25.6507 189.714 26.4187 189.799 27.208C189.885 27.976 189.927 28.6373 189.927 29.192V33.672C189.927 34.9733 189.799 36.2107 189.543 37.384C189.287 38.536 188.818 39.4747 188.135 40.2C187.474 40.904 186.535 41.256 185.319 41.256C184.658 41.256 184.071 41.096 183.559 40.776C183.047 40.4347 182.589 40.0507 182.183 39.624V47.08H178.759ZM184.647 38.568C185.245 38.568 185.671 38.3547 185.927 37.928C186.183 37.48 186.343 36.8827 186.407 36.136C186.471 35.3893 186.503 34.568 186.503 33.672V29.192C186.503 28.424 186.461 27.72 186.375 27.08C186.29 26.4187 186.109 25.896 185.831 25.512C185.554 25.128 185.117 24.936 184.519 24.936C184.071 24.936 183.645 25.032 183.239 25.224C182.834 25.416 182.482 25.64 182.183 25.896V37.736C182.503 37.9707 182.866 38.1733 183.271 38.344C183.677 38.4933 184.135 38.568 184.647 38.568Z" fill="black"/>
   </svg>
   